<svg preserveAspectRatio="xMidYMid meet" data-bbox="73.983 86.133 54.427 41.592" viewBox="73.983 86.133 54.427 41.592" height="200" width="200" xmlns="http://www.w3.org/2000/svg" data-type="color" role="presentation" aria-hidden="true"><defs><style>#comp-jikmdeck svg [data-color="1"] {fill: #000000;}</style></defs>
    <g>
        <path d="M89.713 102.942a1.158 1.158 0 0 0-1.628.143l-5.845 6.972c-.583-4.157.267-8.381 2.496-12.101 2.727-4.551 7.188-7.839 12.239-9.023a18.465 18.465 0 0 1 18.088 5.778 1.156 1.156 0 0 0 1.733-1.528 20.777 20.777 0 0 0-20.349-6.499c-5.655 1.325-10.646 5.001-13.693 10.085a20.825 20.825 0 0 0-2.989 11.164l-3.676-5.498a1.155 1.155 0 0 0-1.92 1.284l6.42 9.602c.202.302.535.492.898.511.02.002.042.002.062.002.341 0 .665-.15.885-.413l7.421-8.851a1.155 1.155 0 0 0-.142-1.628z" fill="#000000" data-color="1"></path>
        <path d="M128.214 112.472l-6.366-9.526c-.011-.017-.021-.033-.033-.049l-.018-.027c-.026-.04-.071-.059-.101-.095-.063-.066-.12-.134-.196-.183a1.124 1.124 0 0 0-.599-.233 1.153 1.153 0 0 0-.949.411l-7.424 8.852a1.156 1.156 0 0 0 1.771 1.485l5.688-6.783c.228 8.402-5.954 16.574-14.578 18.594-6.229 1.462-12.673-.356-17.232-4.868a1.154 1.154 0 1 0-1.624 1.642c3.961 3.919 9.186 6.033 14.591 6.033a21.028 21.028 0 0 0 4.792-.558c9.163-2.146 15.868-10.503 16.341-19.421l4.017 6.011a1.152 1.152 0 0 0 1.602.318c.53-.355.674-1.073.318-1.603z" fill="#000000" data-color="1"></path>
    </g>
</svg>