<svg preserveAspectRatio="xMidYMid meet" data-bbox="75.569 72.28 55.432 54.572" viewBox="75.569 72.28 55.432 54.572" height="200" width="200" xmlns="http://www.w3.org/2000/svg" data-type="color" role="presentation" aria-hidden="true"><defs><style>#comp-jikmded7 svg [data-color="1"] {fill: #31271B;}</style></defs>
    <g>
        <path d="M123.316 85.461c-5.015-5.242-11.684-8.242-18.881-8.532v-3.494a1.155 1.155 0 1 0-2.31 0v3.494c-7.195.292-13.86 3.292-18.872 8.531-5.274 5.512-7.993 12.744-7.656 20.365a1.155 1.155 0 0 0 1.154 1.104h.029a1.157 1.157 0 0 0 1.126-1.163c0-.012.018-1.296.989-2.274.779-.785 1.991-1.183 3.599-1.183 4.758 0 5.77 3.6 5.81 3.745a1.155 1.155 0 0 0 2.24 0c.01-.037.993-3.745 5.81-3.745 4.339 0 5.56 2.987 5.772 3.623v17.166c0 2.464 2.034 3.754 4.042 3.754s4.042-1.289 4.042-3.754a1.155 1.155 0 1 0-2.31 0c0 1.403-1.555 1.444-1.732 1.444-.177 0-1.732-.041-1.732-1.444V106.08c.486-.821 2.463-3.772 5.778-3.772 3.83 0 5.879 3.944 5.897 3.982.195.39.594.635 1.031.637h.003c.434 0 .834-.246 1.03-.634.02-.041 2.069-3.985 5.899-3.985 3.632 0 4.586 3.591 4.624 3.744a1.155 1.155 0 0 0 2.275-.229c.336-7.617-2.383-14.849-7.657-20.362zm.757 14.539c-3.427 0-5.716 2.129-6.93 3.679-1.214-1.55-3.503-3.679-6.93-3.679-3.273 0-5.509 1.943-6.761 3.468-1.171-1.708-3.403-3.468-7.099-3.468-3.525 0-5.718 1.602-6.93 3.231-1.211-1.63-3.405-3.231-6.93-3.231-1.772 0-3.244.391-4.39 1.164.706-5.275 3.051-10.169 6.817-14.106 4.842-5.06 11.364-7.847 18.362-7.847 7 0 13.521 2.787 18.363 7.847 3.874 4.049 6.244 9.111 6.873 14.555-1.079-.929-2.539-1.613-4.445-1.613z" fill="#000000" data-color="1"></path>
    </g>
</svg>