<svg preserveAspectRatio="xMidYMid meet" data-bbox="78 72.28 41.579 55.439" viewBox="78 72.28 41.579 55.439" height="200" width="200" xmlns="http://www.w3.org/2000/svg" data-type="color" role="presentation" aria-hidden="true"><defs><style>#comp-jikmdecz svg [data-color="1"] {fill: #31271B;}</style></defs>
    <g>
        <path d="M98.79 104.62a2.313 2.313 0 0 0-2.31 2.31c0 .851.468 1.588 1.155 1.989v6.096a1.155 1.155 0 1 0 2.31 0v-6.096a2.304 2.304 0 0 0 1.155-1.989 2.312 2.312 0 0 0-2.31-2.31z" fill="#000000" data-color="1"></path>
        <path d="M118.425 93.07h-5.775v-6.93c0-7.642-6.217-13.86-13.86-13.86-7.642 0-13.86 6.218-13.86 13.86v6.93h-5.775c-.638 0-1.155.517-1.155 1.155v32.339c0 .638.517 1.155 1.155 1.155h39.269c.638 0 1.155-.517 1.155-1.155V94.225a1.153 1.153 0 0 0-1.154-1.155zm-31.184-6.93c0-6.369 5.181-11.55 11.55-11.55 6.368 0 11.55 5.181 11.55 11.55v6.93h-23.1v-6.93zm30.029 39.269H80.311V95.38h36.96v30.029z" fill="#000000" data-color="1"></path>
    </g>
</svg>