<svg version="1.2" xmlns="http://www.w3.org/2000/svg" viewBox="0 0 236 287" width="236" height="287">
	<title>favicon</title>
	<style>
		.s0 { fill: #e97029 } 
		.s1 { fill: #f4f5f4 } 
	</style>
	<g id="Background">
		<path id="Path 1" class="s0" d="m82.3 0c0.7-0.1 3.1 1.4 5.4 3.2 2.3 1.8 6.3 5.8 8.9 8.8 2.6 3 7.4 7.4 10.8 9.6 3.4 2.3 9.1 6.8 12.7 10 3.6 3.3 9 8.5 12 11.8 3 3.2 7.1 8.4 9.3 11.5 2.1 3.1 6 10.1 8.6 15.6 2.6 5.5 5.6 12.9 6.6 16.5 1.4 5 1.8 10 1.9 21.5 0 12.8-0.3 16.2-2.3 23-1.3 4.4-4 11.6-6.1 16-2 4.4-5.4 10.5-7.4 13.5-2 3-3.7 4.8-3.7 4 0-0.8 0.7-6.4 1.5-12.5 0.8-6.1 1.5-16.1 1.5-22.3 0-6.1-0.3-11.4-0.7-11.7-0.5-0.2-1.7 1.4-2.8 3.6-1.1 2.3-2.7 4.7-3.5 5.5-1.3 1.1-1.6 0.4-2.2-6.2-0.5-4.6-2-10.3-4-15.2-1.8-4.2-5-9.9-7.3-12.6-2.2-2.7-4.6-5.1-5.2-5.3-0.9-0.2-1.3 1.4-1.3 5.7 0 3.3-0.2 6-0.5 6-0.3 0-2.6-1.6-5.2-3.6-2.7-2-6.8-4.7-9.3-5.9-2.5-1.2-7.9-3-12-4-4.1-0.9-12.2-1.9-18-2.2-5.8-0.3-15.4-0.2-32.5 0.9l2.8 2.4c1.5 1.3 5.7 3.3 9.5 4.5 3.7 1.1 12.1 2.9 18.7 3.9 6.6 1.1 14.3 2.4 17 3 2.8 0.5 6.9 2.2 9.2 3.7 2.3 1.6 5.7 4.8 7.7 7.3 1.9 2.5 4.7 8.1 6.3 12.5 2.7 7.8 2.8 8.5 2.8 30 0 12.1-0.4 24.5-0.8 27.5-0.7 5-1.1 5.7-5 8.2-2.3 1.4-8.2 4.7-13.2 7.1-4.9 2.5-12.7 5.6-17.2 7.1-4.6 1.4-12.2 3.3-17 4.1-4.9 0.8-12.6 1.5-17.3 1.5-4.7 0-11-0.7-14-1.5-3-0.8-7.5-2.7-10-4.3-2.5-1.5-5.5-4.6-6.8-6.7-1.8-3.2-2.2-5.2-2-10 0.2-4.2 1.2-7.8 3.3-11.9 1.7-3.5 6.4-9.6 11-14.4 4.7-5 15.3-14 25.5-21.7 9.6-7.3 19.4-15.3 21.8-17.9 2.3-2.5 4.8-5.8 5.6-7.3 0.8-1.6 1.5-3.9 1.6-5.3 0.1-1.4 0.2-3.1 0.1-3.8-0.1-0.6-1.4-1.2-3.1-1.2-1.7 0-7.6-0.9-13.2-2.1-5.9-1.1-13.3-3.5-17.3-5.4-3.9-1.8-9.5-5.7-12.7-8.6-4.3-4-5.8-6.1-5.8-8.2 0-1.7 0.8-3.2 2.3-4.1 1.2-0.7 4.5-2.1 7.2-3 2.8-0.8 7.8-3.3 11.2-5.3 3.4-2.1 9.2-6.5 12.9-9.8 3.7-3.3 9.7-9.7 19.9-22.6v-14.2c0-9.7 0.4-14.9 1.3-16.4 0.7-1.3 1.8-2.3 2.5-2.3zm100.2 175.1c5.2-0.1 11.4 0.5 14.8 1.4 3.1 0.8 8.1 2.7 11 4.2 2.8 1.4 7.6 5.1 10.5 8.2 3.2 3.4 6.8 8.7 9.2 13.6 2.1 4.4 4.6 10.9 5.4 14.5 0.9 3.6 1.9 9.4 2.3 13 0.4 4.3 0 9.3-1.1 15-1 4.7-2.7 10.7-3.9 13.5-1.1 2.7-3.8 7.9-6 11.5-2.1 3.6-5.4 8.3-7.2 10.5-1.9 2.2-3.6 3.8-3.9 3.5-0.3-0.3 0-3.4 0.7-7 0.9-5.2 0.8-7.4-0.3-11-0.7-2.6-2.6-5.6-4.4-7.2-1.7-1.5-5.1-3.3-7.6-4-2.5-0.7-8.3-1.2-13-1.1-4.9 0.1-13.5 1.3-20.5 2.8-6.6 1.5-18.1 4.9-25.5 7.5-7.4 2.6-19.8 7.1-27.5 10-7.7 2.9-19.2 6.3-25.5 7.6-7.4 1.5-14.9 2.4-21 2.4-5.2 0-12.4-0.6-16-1.4-3.6-0.7-8.7-2.3-11.5-3.5-2.7-1.2-7.2-3.7-10-5.5-2.7-1.8-7.4-6-10.3-9.2-2.9-3.2-7.2-9.7-9.6-14.4-2.4-4.7-5.3-11.7-6.5-15.5-1.1-3.8-2.7-11.1-3.6-16-0.8-4.9-1.5-10.6-1.5-12.5 0.1-3.1 0.2-3.3 1.3-1.5 0.7 1 3.5 4.3 6.2 7.3 2.8 3 7.5 6.7 10.5 8.2 3 1.5 7.9 3.3 10.8 3.9 2.8 0.6 8.5 1.1 12.5 1.1 3.9 0 10.1-0.5 13.7-1.1 3.6-0.5 11.7-2.7 18-4.8 6.3-2.1 17.1-6.7 24-10.1 6.9-3.4 16.3-8.7 21-11.7 4.7-3.1 12.1-7.4 16.5-9.6 4.4-2.1 12.5-5.5 18-7.3 5.5-1.8 12.5-3.7 15.5-4.2 3-0.6 9.6-1 14.5-1.1z"/>
		<path id="Path 2" class="s1" d="m73.3 60.1c0.4-0.1 1.8 0.4 3.2 0.9 1.4 0.5 2.5 1.7 2.5 2.5 0 0.8-1 1.8-2.2 2.1-1.3 0.3-3.6 0.4-5.3 0.2-1.9-0.2-3.1-0.9-3.2-2.1-0.2-1 0.6-2.1 2-2.6 1.2-0.6 2.5-1 3-1zm121.3 133.9h2.4c1.4 0 4.7 0.8 7.5 1.7 2.7 1 6.8 3.6 9 5.8 2.3 2.2 5.3 6.5 6.7 9.5 1.4 3 3.2 8.4 3.9 12 0.7 4 1 10.4 0.7 16.5-0.3 5.5-1.1 12.3-3 20l-2.7-5c-1.4-2.7-4.4-6.3-6.6-8-2.5-2-6.3-3.6-10-4.5-4.1-0.9-9.6-1.1-17.7-0.6-6.5 0.3-11.8 0.4-11.8 0.1 0-0.3 3-2.5 6.8-4.9 3.7-2.5 9-5.4 16.7-8.8l-7-6.4c-4.9-4.4-6.5-6.5-5.5-6.8 0.8-0.3 3.3-0.9 5.5-1.5 2.2-0.5 6.6-1.2 15.5-2.1l-2.6-5.2c-1.5-2.9-3.8-6.8-5.3-8.5z"/>
	</g>
</svg>