<svg version="1.2" xmlns="http://www.w3.org/2000/svg" viewBox="0 0 178 63" width="90px" height="30px"><style></style><path fill-rule="evenodd" d="m176.3 16.9c-3.6 3.7-7.4 7.4-11 11.1-4.6 4.9-10.3 8.2-16.4 10.9-2.8 1.3-5.8 2-9 2.4-3.7 0.4-7.3 1.4-11 0.9-4-0.5-8-1.3-12-2.1-0.5 0-0.9-0.2-1.3-0.2-5.5 0.4-9.8-2.5-14.3-4.8-0.9-0.5-1.8-1.3-2.8-1.5-0.8-0.2-1.8 0.3-2.6 0.8-0.2 0.1 0.1 1.2 0.2 1.8 0.2 1.3 1.1 2 2.3 2.5 2.5 1 5 2.2 7.7 2.1 5.6-0.3 10.1 4.2 14.6 6.9 1.6 1 4 0.2 5.4 1.5 0.6 0.5-0.2 2.1 0.2 2.9-0.8 0.3-1.6 0.9-2.3 0.7-1.7-0.4-3.5-1-5.2-1.7-1.2-0.6-2.4-1.3-3.6-2.1-3.7-2.1-7.7-3.2-11.9-2.6-1.8 0.3-3.5 1.1-5.2 1.7 1.3 1.4 3.1 1.5 4.8 2.1 3.5 1.2 6.1 2.6 9.5 4.5q-0.3 0.1-0.8 0.3c0 0.6 0.1 0.7 0.5 0.6 0.4-0.1 0.9-0.3 1.4-0.5 2 0.6 4.3 0.3 4.8 1.9 0.3 0.7 1 2.6 0.2 3.2-0.3 0.3-4.7 0.2-5.2-0.3-3.6-3-7.8-4.2-12.5-4.6-4.2-0.3-8.2-1.7-12.2-3-2.7-0.8-5.3-2-7.7-3.3-2.3-1.3-4.3-3-6.6-4.2-1.1-0.7-2.7-1.1-3.9-0.9-3.6 0.7-7.1 1.9-10.6 2.9-7.2 2-13.7 5.8-20.6 8.3-0.5 0.2-0.9 0.3-1.3 0.4-4.8 0.3-9.3 1.6-13.7 3.5q-4.1 1.8-8.2 3.8c-0.6 0.4-1.6 0.1-2.4 0.1 0.2-0.8 0-1.8 0.5-2.3 1.4-1.4 3-2.9 4.7-3.9 3.4-1.9 6.9-3.6 10.3-5.4 0.3-0.1 0.5-0.3 0.7-0.5q-0.4-0.2-0.8-0.4c0-0.1-0.2 0-0.3 0q-5.2 1-10.4 2c-0.8 0.2-1.5 0.4-2.2 0.4-2.1 0-3.9 0.3-5.4 1.9-0.4 0.4-1 0.7-1.5 0.6-0.7 0-1.8-0.1-2-0.5-0.2-0.7 0-1.7 0.4-2.3 1.4-2.1 3.7-3 6-3.7 3.3-1.1 6.9-1.7 10.2-2.8 1.3-0.4 2.4-1.5 3.4-2.5 0.3-0.4 0.2-1.7-0.1-2.2-2.2-3.2-4.1-6.6-6.7-9.2-3.1-2.9-6.5-6.4-11.3-6.2-1.6 0.1-5.9 0.6-7.3 0.3-1-0.3-1.3-1.1-1.8-2-0.3-0.5 2.3-1.7 2.9-2.3 1.1-1.2 2.7-2 3.8-3.3 2-2.3 1.5-3.6 2-6.4 0.3-1.4 2.2-2.4 2.1-3.9-0.1-1.2 1.3-7.2 1.3-7.2 1.8-0.6 3.1 2.6 3.6 4 1.2 3.2 4.3 2.9 6.6 4.1 0.4 0.2 1.3-0.4 1.9-0.8 1.6-1.1 3.2-2.3 4.8-3.4 1.7-1.3 2.8-0.9 3 1.3 0.1 1.2 0.2 2.4 0 3.6-1.1 5.1 2.4 7.9 5.9 9.7 4.8 2.6 9.9 4.4 15.5 4.3 5.1-0.1 10.1 0 15.2 0v-0.1c5.1 0 10.3-0.1 15.4 0.1 2.1 0 4.2 0.6 6.4 1 3 0.7 5.7-0.3 8.5-1.5 5-2.1 10.2-4.2 16-3.4 3.5 0.5 6.9 1.4 10.4 2.1 3 0.6 6.1 0.9 8.8 2 3.7 1.4 7.4 1.1 11 1 3.9-0.2 7.6-1.1 11.3-2.4 5-1.6 10.1-3.5 14.9-5.6 1.4-0.6 1.6-1.1 2.9-1.5 0.6-0.2 3-1.9 3.6-1.6 0.6 0.3-0.2 1.6-1.5 2.9zm-63.9 37.8c0.7-0.3 0.8-0.2 1.2 0.4q-0.1 0-0.1 0-0.6-0.1-1.1-0.4 0 0 0 0zm-91.6-27.8c-0.3-0.2-0.5-0.5-0.8-0.6-0.3-0.3-0.7-0.2-1.1 0.1-0.2 0.1-0.2 0.4 0 0.6 0.2 0.1 0.5 0.2 0.7 0.3 0.2 0.2 0.4 0.3 0.6 0.2 0.2-0.2 0.4-0.4 0.6-0.6zm8-15.9c-0.4 0.2-0.4 0.3-0.2 0.7 0-0.1 0.1-0.1 0.1-0.1q0.2-0.3 0.1-0.6zm5.1 34q-0.5 0-1-0.1c0 0 0 0.1-0.1 0.1v0.7q0.1 0 0.3 0 0.4-0.1 0.9-0.3c0 0 0-0.4-0.1-0.4zm-1.1 0.7q0 0 0 0 0 0 0 0 0 0 0 0 0 0 0 0zm1.6-10.4l-0.1-0.6h-0.2v0.6zm5.4 8h-0.3v0.6l0.2 0.1zm4.6-11c-0.1-0.1-0.2-0.1-0.2-0.1-0.1 0-0.2 0.1-0.2 0.1 0.1 0.1 0.2 0.1 0.2 0.1 0.1 0 0.1 0 0.2-0.1zm2.4 14.3c0-0.1-0.1-0.1-0.2-0.2 0 0.1-0.1 0.2-0.1 0.3 0 0.1 0.1 0.1 0.2 0.1 0 0 0.1-0.1 0.1-0.2zm5.7-19.4l-0.1-0.8-0.2-0.1-0.6 0.8zm7.1 18.8v-0.3l-0.7 0.1 0.1 0.2zm0.3-11.8h-0.5c-0.2 0.4-0.4 0.7-0.5 1q-0.1 0.1-0.1 0.1 0 0.1 0 0.2 0.1 0 0.1 0.1 0 0.1 0.1 0.1c0 0.1 0.3 0.1 0.4 0.1 0.3-0.2 0.6-1.2 0.5-1.6zm0.5 5.1c0-0.1-0.2-0.1-0.2-0.1q0 0 0 0-0.1 0.1-0.1 0.1 0 0 0 0 0 0.1 0 0.1c0 0.1 0.1 0.1 0.2 0.2 0-0.1 0.1-0.2 0.1-0.3zm2.9 2.4h-0.7v0.2h0.7zm0.8-1.8v-0.3h-0.7v0.3zm20.2-10.6c-0.2 0-0.5 0.1-0.5 0.2-0.1 0.4-0.3 0.9 0.1 1.3 0.2-0.3 0.4-0.6 0.6-0.9 0-0.2-0.1-0.4-0.2-0.6zm7 9.9c-0.4 0.7 0.2 0.9 0.5 1.3 0.4-0.7-0.1-0.9-0.5-1.3zm24.8-8.9q-0.5-0.5-0.8 0.2-0.2 0.3-0.3 0.5 0.1 0.2 0.1 0.3 0.1 0.1 0.1 0.2 0.1 0.2 0.1 0.3 0.1 0.1 0.2 0.3c0.1-0.2 0.2-0.3 0.4-0.4 0.8-0.3 0.9-0.8 0.2-1.4zm52.4-8.9c-0.5 0-13.2 5.6-13.7 5.6-1.5 0.3-3.1 0.9-4.6 1-4.6 0.6-9.3 0.9-13.9 1.4-0.8 0.1 1.5 1.2 0.9 1.7-0.3 0.2-3.5 0.4-3.4 0.6 0.9 1.1 4.1 0.5 3.2 2.3-0.1 0.1-4.1 2.2-3.3 2.5 0.9 0.2 6.8-1.2 6.6 0.6 0 0-4.1 1.4-4.1 1.5 1.4-0.2 13.1-2.6 14.3-3.2 4.4-2.2 16.4-11.1 18-14z"/></svg>